<?xml version="1.0" encoding="UTF-8"?>
<svg width="24px" height="24px" viewBox="0 0 24 24" version="1.1" xmlns="http://www.w3.org/2000/svg" xmlns:xlink="http://www.w3.org/1999/xlink">
    <!-- Generator: Sketch 55.2 (78181) - https://sketchapp.com -->
    <title>icons / glyphs 24 / order / card checked</title>
    <desc>Created with Sketch.</desc>
    <g id="icons-/-glyphs-24-/-order-/-card-checked" stroke="none" stroke-width="1" fill="none" fill-rule="evenodd">
        <rect id="container" x="0" y="0" width="24" height="24"></rect>
        <path d="M23,11 L21,11 L21,7 C21,6.44771525 20.5522847,6 20,6 L4,6 C3.44771525,6 3,6.44771525 3,7 L3,17 C3,17.5522847 3.44771525,18 4,18 L11,18 L11,20 L4,20 C2.34314575,20 1,18.6568542 1,17 L1,7 C1,5.34314575 2.34314575,4 4,4 L20,4 C21.6568542,4 23,5.34314575 23,7 L23,11 Z M11,20 C10.4477153,20 10,19.5522847 10,19 C10,18.4477153 10.4477153,18 11,18 C11.5522847,18 12,18.4477153 12,19 C12,19.5522847 11.5522847,20 11,20 Z M3,8 L23,8 L23,11 L3,11 L3,8 Z M22.2928905,14.2929122 C22.6833899,13.9023626 23.3165887,13.9023626 23.707088,14.2929122 C24.0976373,14.6834617 24.0976373,15.316611 23.707088,15.7071106 L18.7071023,20.7071003 C18.5118527,20.9023501 18.2559531,21 18,21 C17.744054,21 17.4881545,20.9023501 17.2929048,20.7071003 L14.292912,17.7071055 C13.9023627,17.3165559 13.9023627,16.6834066 14.292912,16.292907 C14.6834613,15.9024075 15.3166101,15.9023575 15.7071095,16.292907 L18,18.5858027 L22.2928905,14.2929122 Z" id="Mask" fill="#001A34" fill-rule="nonzero"></path>
    </g>
</svg>