<?xml version="1.0" encoding="UTF-8"?>
<svg width="24px" height="24px" viewBox="0 0 24 24" version="1.1" xmlns="http://www.w3.org/2000/svg" xmlns:xlink="http://www.w3.org/1999/xlink">
    <!-- Generator: Sketch 55.2 (78181) - https://sketchapp.com -->
    <title>icons / tab bar / cart</title>
    <desc>Created with Sketch.</desc>
    <g id="icons-/-tab-bar-/-cart" stroke="none" stroke-width="1" fill="none" fill-rule="evenodd">
        <rect id="container" x="0" y="0" width="24" height="24"></rect>
        <path d="M6,6 C6,3.790861 7.790861,2 10,2 L14,2 C16.209139,2 18,3.790861 18,6 L18,8 L23.1327822,8 L21.8207649,18.4961389 C21.5705504,20.4978542 19.8689464,22 17.8516533,22 L6.14834666,22 C4.13105358,22 2.42944956,20.4978542 2.17923515,18.4961389 L0.867217781,8 L6,8 L6,6 Z M12,8 C12.5522847,8 13,8.44771525 13,9 C13,9.55228475 12.5522847,10 12,10 L3.13278222,10 L4.1637909,18.2480695 C4.28889811,19.2489271 5.13970012,20 6.14834666,20 L17.8516533,20 C18.8602999,20 19.7111019,19.2489271 19.8362091,18.2480695 L20.8672178,10 L16,10 L16,6 C16,4.8954305 15.1045695,4 14,4 L10,4 C8.8954305,4 8,4.8954305 8,6 L8,8 L12,8 Z" id="Mask" fill="#808D9A" fill-rule="nonzero"></path>
    </g>
</svg>