<?xml version="1.0" encoding="UTF-8"?>
<svg width="24px" height="24px" viewBox="0 0 24 24" version="1.1" xmlns="http://www.w3.org/2000/svg" xmlns:xlink="http://www.w3.org/1999/xlink">
    <!-- Generator: Sketch 55.2 (78181) - https://sketchapp.com -->
    <title>icons / glyphs 24 / catalog</title>
    <desc>Created with Sketch.</desc>
    <g id="icons-/-glyphs-24-/-catalog" stroke="none" stroke-width="1" fill="none" fill-rule="evenodd">
        <rect id="container" x="0" y="0" width="24" height="24"></rect>
        <path d="M9,5 L21,5 C21.5522847,5 22,5.44771525 22,6 C22,6.55228475 21.5522847,7 21,7 L9,7 C8.44771525,7 8,6.55228475 8,6 C8,5.44771525 8.44771525,5 9,5 Z M9,11 L21,11 C21.5522847,11 22,11.4477153 22,12 C22,12.5522847 21.5522847,13 21,13 L9,13 C8.44771525,13 8,12.5522847 8,12 C8,11.4477153 8.44771525,11 9,11 Z M9,17 L15,17 C15.5522847,17 16,17.4477153 16,18 C16,18.5522847 15.5522847,19 15,19 L9,19 C8.44771525,19 8,18.5522847 8,18 C8,17.4477153 8.44771525,17 9,17 Z M3.5,7.5 C2.67157288,7.5 2,6.82842712 2,6 C2,5.17157288 2.67157288,4.5 3.5,4.5 C4.32842712,4.5 5,5.17157288 5,6 C5,6.82842712 4.32842712,7.5 3.5,7.5 Z M3.5,13.5 C2.67157288,13.5 2,12.8284271 2,12 C2,11.1715729 2.67157288,10.5 3.5,10.5 C4.32842712,10.5 5,11.1715729 5,12 C5,12.8284271 4.32842712,13.5 3.5,13.5 Z M3.5,19.5 C2.67157288,19.5 2,18.8284271 2,18 C2,17.1715729 2.67157288,16.5 3.5,16.5 C4.32842712,16.5 5,17.1715729 5,18 C5,18.8284271 4.32842712,19.5 3.5,19.5 Z" id="Combined-Shape-Copy" fill="#001A34" fill-rule="nonzero"></path>
    </g>
</svg>