<?xml version="1.0" encoding="UTF-8"?>
<svg width="24px" height="24px" viewBox="0 0 24 24" version="1.1" xmlns="http://www.w3.org/2000/svg" xmlns:xlink="http://www.w3.org/1999/xlink">
    <!-- Generator: Sketch 55.2 (78181) - https://sketchapp.com -->
    <title>icons / glyphs 24 / cross m</title>
    <desc>Created with Sketch.</desc>
    <g id="icons-/-glyphs-24-/-cross-m" stroke="none" stroke-width="1" fill="none" fill-rule="evenodd">
        <rect id="container" x="0" y="0" width="24" height="24"></rect>
        <path d="M12,10.5871582 L18.2928162,4.29297028 C18.6832979,3.90240343 19.3164629,3.90233443 19.7070297,4.29281616 C20.0975966,4.68329789 20.0976656,5.31646287 19.7071838,5.70702972 L13.4140595,12.0015259 L19.7071838,18.296022 C20.0976656,18.6865889 20.0975966,19.3197539 19.7070297,19.7102356 C19.3164629,20.1007173 18.6832979,20.1006483 18.2928162,19.7100815 L12,13.4158936 L5.70718384,19.7100815 C5.31670211,20.1006483 4.68353713,20.1007173 4.29297028,19.7102356 C3.90240343,19.3197539 3.90233443,18.6865889 4.29281616,18.296022 L10.5859405,12.0015259 L4.29281616,5.70702972 C3.90233443,5.31646287 3.90240343,4.68329789 4.29297028,4.29281616 C4.68353713,3.90233443 5.31670211,3.90240343 5.70718384,4.29297028 L12,10.5871582 Z" id="Mask" fill="#001A34" fill-rule="nonzero"></path>
    </g>
</svg>