<svg xmlns="http://www.w3.org/2000/svg" width="24" height="24" viewBox="0 0 24 24">
    <path fill="currentColor" fill-rule="nonzero" d="M21 8.5C21 5.805 19.621 4 17.282 4 14.969 4 13 5.743 13 8h-2c0-2.257-1.97-4-4.282-4C4.378 4 3 5.805 3 8.5c0 1.664.737 3.36 2.583 5.493A1 1 0 0 1 4.07 15.3C1.931 12.83 1 10.687 1 8.5 1 4.8 3.139 2 6.718 2 8.884 2 10.864 3.069 12 4.742 13.136 3.069 15.115 2 17.282 2c3.58 0 5.717 2.8 5.718 6.5 0 3.816-2.885 7.664-10.4 13.3l-.6.45-.6-.45a71.789 71.789 0 0 1-3.61-2.876 1 1 0 0 1 1.3-1.52c.866.741 1.834 1.52 2.91 2.342 6.602-5.035 9-8.317 9-11.246z"/>
</svg>