<?xml version="1.0" encoding="UTF-8"?>
<svg width="24px" height="24px" viewBox="0 0 24 24" version="1.1" xmlns="http://www.w3.org/2000/svg" xmlns:xlink="http://www.w3.org/1999/xlink">
    <!-- Generator: Sketch 55.2 (78181) - https://sketchapp.com -->
    <title>icons / glyphs 24 / order / home</title>
    <desc>Created with Sketch.</desc>
    <g id="icons-/-glyphs-24-/-order-/-home" stroke="none" stroke-width="1" fill="none" fill-rule="evenodd">
        <rect id="container" x="0" y="0" width="24" height="24"></rect>
        <path d="M8,20 L8,15 C8,12.790861 9.790861,11 12,11 C14.209139,11 16,12.790861 16,15 L16,16 C16,16.5522847 15.5522847,17 15,17 C14.4477153,17 14,16.5522847 14,16 L14,15 C14,13.8954305 13.1045695,13 12,13 C10.8954305,13 10,13.8954305 10,15 L10,22 L2,22 L2,10.0316251 L12,1.69829172 L22,10.0316251 L22,22 L15,22 C14.4477153,22 14,21.5522847 14,21 C14,20.4477153 14.4477153,20 15,20 L20,20 L20,10.9683749 L12,4.30170828 L4,10.9683749 L4,20 L8,20 Z" id="Mask" fill="#001A34" fill-rule="nonzero"></path>
    </g>
</svg>