<?xml version="1.0" encoding="UTF-8"?>
<svg width="24px" height="24px" viewBox="0 0 24 24" version="1.1" xmlns="http://www.w3.org/2000/svg" xmlns:xlink="http://www.w3.org/1999/xlink">
    <!-- Generator: Sketch 55.2 (78181) - https://sketchapp.com -->
    <title>icons / glyphs 24 / order / person</title>
    <desc>Created with Sketch.</desc>
    <g id="icons-/-glyphs-24-/-order-/-person" stroke="none" stroke-width="1" fill="none" fill-rule="evenodd">
        <rect id="container" x="0" y="0" width="24" height="24"></rect>
        <path d="M7,12.1 C6.74,12.1 6.48,11.9893082 6.29,11.8081761 C6.11,11.6169811 6,11.3553459 6,11.0937107 C6,10.8320755 6.11,10.5704403 6.29,10.3792453 C6.67,10.0069182 7.33,10.0069182 7.71,10.3792453 C7.89,10.5704403 8,10.8320755 8,11.0937107 C8,11.3553459 7.89,11.6169811 7.71,11.8081761 C7.52,11.9893082 7.26,12.1 7,12.1 Z M17,12.1 C16.74,12.1 16.48,11.9898184 16.29,11.8095211 C16.2,11.709356 16.13,11.5991744 16.08,11.4789762 C16.03,11.358778 16,11.2285634 16,11.0983487 C16,10.968134 16.03,10.8379194 16.08,10.7177212 C16.13,10.5975231 16.2,10.4873414 16.29,10.3871763 C16.57,10.1167304 17.01,10.0165653 17.38,10.1768295 C17.51,10.2269121 17.61,10.2970277 17.71,10.3871763 C17.8,10.4873414 17.87,10.5975231 17.92,10.7177212 C17.97,10.8379194 18,10.968134 18,11.0983487 C18,11.2285634 17.97,11.358778 17.92,11.4789762 C17.87,11.5991744 17.8,11.709356 17.71,11.8095211 C17.52,11.9898184 17.26,12.1 17,12.1 Z M8.79289322,16.8044818 C8.40236893,16.4139575 8.40236893,15.7807925 8.79289322,15.3902682 C9.18341751,14.9997439 9.81658249,14.9997439 10.2071068,15.3902682 C11.1965825,16.3797439 12.8034175,16.3797439 13.7928932,15.3902682 C14.1834175,14.9997439 14.8165825,14.9997439 15.2071068,15.3902682 C15.5976311,15.7807925 15.5976311,16.4139575 15.2071068,16.8044818 C13.4365825,18.5750061 10.5634175,18.5750061 8.79289322,16.8044818 Z M3.5,11.8631135 C3.5,16.9353005 7.90521658,20.8905436 13.0092789,20.3055055 C16.779824,19.8725243 19.8860006,16.8514268 20.4123209,13.1015275 C20.8233852,10.1747492 19.7527637,7.36810092 17.6212346,5.48779557 C16.6191652,4.60317302 15.4238959,3.96504604 14.1256509,3.63079248 C13.5908087,3.49308896 13.2688642,2.94788292 13.4065677,2.41304072 C13.5442712,1.87819851 14.0894773,1.556254 14.6243195,1.69395752 C16.2300745,2.10738435 17.7075776,2.89618955 18.9445743,3.98820502 C21.5741428,6.30785033 22.8985026,9.77967676 22.3928947,13.3796052 C21.7397871,18.0328327 17.9121381,21.7556411 13.2372382,22.2924717 C6.94287872,23.0139441 1.5,18.1270315 1.5,11.8631135 C1.5,7.04440676 4.77329376,2.87822248 9.37579214,1.69392269 L10.6249911,1.37248291 L10.6249911,2.662375 C10.6249911,4.56821218 12.1698984,6.11311945 14.0757356,6.11311945 L14.3749852,6.11311945 C14.9272699,6.11311945 15.3749852,6.5608347 15.3749852,7.11311945 C15.3749852,7.6654042 14.9272699,8.11311945 14.3749852,8.11311945 L14.0757356,8.11311945 C11.5232832,8.11311945 9.38065002,6.35877487 8.78782721,3.99007686 C5.64545461,5.27093399 3.5,8.35358551 3.5,11.8631135 Z" id="Mask" fill="#001A34" fill-rule="nonzero"></path>
    </g>
</svg>