<?xml version="1.0" encoding="UTF-8"?>
<svg width="16px" height="16px" viewBox="0 0 16 16" version="1.1" xmlns="http://www.w3.org/2000/svg" xmlns:xlink="http://www.w3.org/1999/xlink">
    <!-- Generator: Sketch 55.2 (78181) - https://sketchapp.com -->
    <title>icons / glyphs 16 / search</title>
    <desc>Created with Sketch.</desc>
    <g id="icons-/-glyphs-16-/-search" stroke="none" stroke-width="1" fill="none" fill-rule="evenodd">
        <rect id="container" x="0" y="0" width="16" height="16"></rect>
        <path d="M6.33726633,12.6745327 C2.83729078,12.6745327 0,9.83724188 0,6.33726633 C0,2.83729078 2.83729078,0 6.33726633,0 C9.74582515,0 12.540388,2.69606374 12.6698683,6.09222141 C12.6722053,6.15973954 12.6722053,6.15973954 12.6735976,6.22746402 C12.6830083,6.77966859 12.242987,7.23494774 11.6907824,7.24435847 C11.1385778,7.25376919 10.6832987,6.81374785 10.673888,6.26154328 C10.6729287,6.21488426 10.6729287,6.21488426 10.6713203,6.16841714 C10.5827547,3.84541741 8.66991604,2 6.33726633,2 C3.94186028,2 2,3.94186028 2,6.33726633 C2,8.73267238 3.94186028,10.6745327 6.33726633,10.6745327 C7.50412858,10.6745327 8.59538225,10.2129713 9.40417676,9.40417676 L10.1112835,8.69706998 L15.7071068,14.2928932 C16.0976311,14.6834175 16.0976311,15.3165825 15.7071068,15.7071068 C15.3165825,16.0976311 14.6834175,16.0976311 14.2928932,15.7071068 L10.0555477,11.4697612 C8.98903663,12.2438095 7.69644997,12.6745327 6.33726633,12.6745327 Z" id="Path" fill="#808D9A" fill-rule="nonzero"></path>
    </g>
</svg>